<svg fill='#fb4443' id="Capa_1" enable-background="new 0 0 509.865 509.865" height="512" viewBox="0 0 509.865 509.865" width="512" xmlns="http://www.w3.org/2000/svg"><g id="XMLID_1243_"><path id="XMLID_1244_" d="m134.672 83.477-15.482-15.482c11.777-17.01 10.009-40.142-5.121-55.271-8.199-8.205-19.105-12.724-30.707-12.724s-22.51 4.518-30.715 12.723c-7.406 7.407-11.802 17.079-12.589 27.335-10.253.782-19.925 5.181-27.329 12.594-8.205 8.199-12.724 19.104-12.724 30.706s4.518 22.51 12.722 30.714c14.749 14.748 37.549 16.753 54.471 5.649l18.032 18.032c11.63-22.006 28.713-40.701 49.442-54.276z"/><path id="XMLID_1255_" d="m441.868 390.673-38.45-38.449c-.943 1.01-1.897 2.012-2.872 3v40.298c0 15.905-6.302 30.358-16.525 41.023l6.119 6.119c-11.104 16.93-9.096 39.734 5.657 54.477 8.199 8.205 19.104 12.725 30.707 12.725 11.602 0 22.51-4.519 30.713-12.723 7.408-7.407 11.805-17.079 12.592-27.336 10.253-.781 19.924-5.18 27.328-12.593 8.205-8.2 12.724-19.105 12.724-30.708 0-11.601-4.518-22.509-12.721-30.712-15.118-15.128-38.253-16.899-55.272-5.121z"/><path id="XMLID_1256_" d="m425.25 137.14 17.418-17.417c16.921 11.102 39.722 9.097 54.471-5.65 8.204-8.204 12.722-19.112 12.722-30.714 0-11.603-4.519-22.508-12.719-30.702-7.407-7.418-17.079-11.816-27.334-12.599-.786-10.256-5.183-19.928-12.59-27.336-8.206-8.204-19.113-12.722-30.715-12.722-11.603 0-22.508 4.519-30.706 12.722-15.13 15.131-16.899 38.264-5.122 55.273l-15.109 15.11c20.791 13.479 37.954 32.094 49.684 54.035z"/><path id="XMLID_1257_" d="m110.257 395.521v-40.298c-1.131-1.146-2.233-2.313-3.322-3.49l-38.938 38.939c-17.021-11.777-40.154-10.008-55.271 5.12-8.204 8.204-12.722 19.112-12.722 30.713 0 11.603 4.519 22.508 12.72 30.704 7.409 7.417 17.079 11.815 27.333 12.597.787 10.257 5.183 19.929 12.589 27.336 8.205 8.204 19.113 12.723 30.715 12.723 11.603 0 22.508-4.52 30.704-12.722 14.756-14.745 16.765-37.55 5.66-54.479l6.599-6.599c-9.953-10.618-16.067-24.876-16.067-40.544z"/><path id="XMLID_1258_" d="m193.971 212.306c-11.657 0-21.142 9.484-21.142 21.142s9.484 21.141 21.142 21.141 21.142-9.483 21.142-21.141-9.485-21.142-21.142-21.142z"/><path id="XMLID_1259_" d="m316.832 212.306c-11.657 0-21.142 9.484-21.142 21.142s9.484 21.141 21.142 21.141 21.142-9.483 21.142-21.141-9.485-21.142-21.142-21.142z"/><path id="XMLID_1262_" d="m341.205 424.862c16.179 0 29.341-13.162 29.341-29.341v-53.19l4.801-4.451c23.908-22.173 37.075-52.384 37.075-85.068v-47.005c0-64.034-52.096-116.13-116.13-116.13h-81.78c-64.034 0-116.129 52.096-116.129 116.13v47.005c0 32.684 13.167 62.895 37.075 85.068l4.8 4.451v53.19c0 16.179 13.162 29.341 29.341 29.341h17.627v-44.607c0-8.284 6.716-15 15-15s15 6.716 15 15v44.607h23.177v-44.607c0-8.284 6.716-15 15-15s15 6.716 15 15v44.607h23.177v-44.607c0-8.284 6.716-15 15-15s15 6.716 15 15v44.607zm-147.234-140.274c-28.199 0-51.142-22.941-51.142-51.141s22.942-51.142 51.142-51.142 51.142 22.942 51.142 51.142-22.943 51.141-51.142 51.141zm82.369 52.725-20.938-10.882-20.939 10.882-13.834-26.619 34.773-18.071 34.772 18.071zm40.492-52.725c-28.199 0-51.142-22.941-51.142-51.141s22.942-51.142 51.142-51.142 51.142 22.942 51.142 51.142-22.943 51.141-51.142 51.141z"/></g></svg>